<svg data-v-423bf9ae="" xmlns="http://www.w3.org/2000/svg" viewBox="0 0 554 90" class="iconLeft"><!----><!----><!----><g data-v-423bf9ae="" id="4d76f69b-3c20-4bfa-b56d-c675bbc530d7" fill="#000000" transform="matrix(5.7471261427876925,0,0,5.7471261427876925,98.91344203192733,-5.057469101045022)"><path d="M6.45 5.75L6.45 5.12L9.86 5.12L9.86 5.75L8.67 6.08L8.67 13.72L7.10 13.86L2.65 7.34L2.65 12.75L3.84 13.09L3.84 13.72L0.50 13.72L0.50 13.09L1.68 12.75L1.68 6.08L0.49 5.75L0.49 5.12L3.37 5.12L7.64 11.44L7.64 6.08L6.45 5.75ZM13.78 13.86Q10.42 13.86 10.42 10.30L10.42 10.30Q10.42 8.37 11.31 7.53Q12.21 6.69 13.64 6.69L13.64 6.69Q15.11 6.69 15.78 7.34Q16.45 7.99 16.45 9.38L16.45 9.38Q16.45 9.98 16.39 10.30L16.39 10.30L12.45 10.30L12.45 10.64Q12.45 11.87 12.91 12.34Q13.37 12.81 14.34 12.81L14.34 12.81Q15.06 12.81 16.27 12.47L16.27 12.47L16.38 13.09Q15.36 13.86 13.78 13.86L13.78 13.86ZM12.47 9.55L14.55 9.39L14.55 9.10Q14.55 8.40 14.38 8.03Q14.21 7.66 13.71 7.66L13.71 7.66Q13.01 7.66 12.75 8.11Q12.50 8.57 12.47 9.55L12.47 9.55ZM24.04 12.91L24.04 13.72L20.52 13.72L20.52 12.94L21.10 12.81L20.09 11.41L19.19 12.80L19.82 12.94L19.82 13.72L16.66 13.72L16.66 12.98L17.70 12.70L19.32 10.33L17.49 7.77L16.83 7.56L16.83 6.83L19.96 6.83L19.96 7.59L19.45 7.69L20.50 9.14L21.36 7.77L20.75 7.59L20.75 6.83L23.73 6.83L23.73 7.60L22.96 7.74L21.27 10.23L23.04 12.71L24.04 12.91ZM32.12 13.55Q31.58 13.69 31.27 13.74Q30.95 13.79 30.59 13.79L30.59 13.79Q30.09 13.79 29.67 13.57Q29.26 13.36 29.19 12.99L29.19 12.99Q28.78 13.36 28.13 13.61Q27.48 13.86 26.89 13.86L26.89 13.86Q25.96 13.86 25.54 13.41Q25.12 12.95 25.12 12.25L25.12 12.25L25.12 8.06L24.02 7.91L24.02 7.24L26.39 6.69L27.01 6.69L27.01 11.76Q27.01 12.24 27.21 12.47Q27.41 12.71 27.87 12.71L27.87 12.71Q28.15 12.71 28.51 12.58Q28.87 12.45 29.13 12.25L29.13 12.25L29.13 8.06L28.04 7.91L28.04 7.24L30.41 6.69L31.02 6.69L31.02 12.56L32.12 12.95L32.12 13.55ZM35.78 7.63Q35.25 7.63 34.94 7.83Q34.64 8.04 34.64 8.39L34.64 8.39Q34.64 8.68 34.78 8.88Q34.93 9.07 35.29 9.20L35.29 9.20L36.89 9.70Q37.62 9.93 37.96 10.38Q38.30 10.84 38.30 11.68L38.30 11.68Q38.30 12.68 37.53 13.27Q36.76 13.86 35.39 13.86L35.39 13.86Q34.85 13.86 34.20 13.77Q33.54 13.68 33.05 13.51L33.05 13.51L33.22 11.56L34.03 11.56L34.33 12.74Q34.80 12.91 35.34 12.91L35.34 12.91Q36.71 12.91 36.71 12.05L36.71 12.05Q36.71 11.75 36.55 11.61Q36.39 11.47 35.94 11.31L35.94 11.31L34.41 10.79Q33.74 10.57 33.40 10.12Q33.07 9.66 33.07 8.90L33.07 8.90Q33.07 7.87 33.75 7.28Q34.44 6.69 35.81 6.69L35.81 6.69Q36.36 6.69 36.94 6.80Q37.52 6.90 38.01 7.10L38.01 7.10L37.81 8.86L37.03 8.86L36.75 7.83Q36.51 7.73 36.30 7.68Q36.09 7.63 35.78 7.63L35.78 7.63ZM41.22 7.35L41.12 5.12L48.47 5.12L48.38 7.35L47.59 7.35L47.31 6.08L45.74 6.08L45.74 12.75L46.93 13.09L46.93 13.72L42.67 13.72L42.67 13.09L43.85 12.75L43.85 6.08L42.25 6.08L41.99 7.35L41.22 7.35ZM52.53 7.88Q51.98 7.88 51.62 8.11L51.62 8.11L51.62 12.74L53.24 13.02L53.24 13.72L48.64 13.72L48.64 13.02L49.73 12.74L49.73 8.06L48.64 7.91L48.64 7.24L50.99 6.69L51.62 6.69L51.62 7.34Q52.08 7.03 52.65 6.84Q53.23 6.65 53.70 6.65L53.70 6.65Q54.03 6.65 54.11 6.66L54.11 6.66L53.84 9.17L52.82 9.17L52.53 7.88ZM57.26 7.76Q56.73 7.76 56.25 7.92L56.25 7.92L55.94 9.10L55.12 9.10L54.88 7.21Q56.28 6.69 57.78 6.69L57.78 6.69Q58.91 6.69 59.48 7.07Q60.05 7.45 60.05 8.44L60.05 8.44L60.05 12.56L61.14 12.95L61.14 13.55Q60.58 13.69 60.27 13.74Q59.96 13.79 59.60 13.79L59.60 13.79Q59.11 13.79 58.71 13.60Q58.31 13.41 58.20 13.05L58.20 13.05Q57.64 13.47 57.16 13.66Q56.69 13.86 56.13 13.86L56.13 13.86Q55.36 13.86 54.91 13.40Q54.47 12.94 54.47 12.14L54.47 12.14Q54.47 11.47 54.89 10.89Q55.30 10.30 56.27 10.11L56.27 10.11L58.16 9.72L58.16 8.74Q58.16 8.19 57.95 7.97Q57.75 7.76 57.26 7.76L57.26 7.76ZM57.32 10.74Q56.77 10.88 56.55 11.17Q56.32 11.47 56.32 11.94L56.32 11.94Q56.32 12.73 57.05 12.73L57.05 12.73Q57.32 12.73 57.63 12.61Q57.95 12.49 58.16 12.35L58.16 12.35L58.16 10.53L57.32 10.74ZM68.31 7.56L67.42 7.80L65.27 13.79L63.91 13.93L61.63 7.77L60.91 7.56L60.91 6.83L64.37 6.83L64.37 7.60L63.66 7.77L64.89 11.63L66.16 7.80L65.27 7.60L65.27 6.83L68.31 6.83L68.31 7.56ZM71.72 13.86Q68.36 13.86 68.36 10.30L68.36 10.30Q68.36 8.37 69.26 7.53Q70.15 6.69 71.58 6.69L71.58 6.69Q73.05 6.69 73.72 7.34Q74.40 7.99 74.40 9.38L74.40 9.38Q74.40 9.98 74.34 10.30L74.34 10.30L70.39 10.30L70.39 10.64Q70.39 11.87 70.85 12.34Q71.32 12.81 72.28 12.81L72.28 12.81Q73.01 12.81 74.21 12.47L74.21 12.47L74.33 13.09Q73.30 13.86 71.72 13.86L71.72 13.86ZM70.42 9.55L72.49 9.39L72.49 9.10Q72.49 8.40 72.32 8.03Q72.16 7.66 71.65 7.66L71.65 7.66Q70.95 7.66 70.70 8.11Q70.45 8.57 70.42 9.55L70.42 9.55ZM79.03 13.72L74.96 13.72L74.96 13.02L76.05 12.74L76.05 4.86L74.96 4.70L74.96 4.03L77.32 3.49L77.94 3.49L77.94 12.74L79.03 13.02L79.03 13.72Z"></path></g><defs data-v-423bf9ae=""><linearGradient data-v-423bf9ae="" gradientTransform="rotate(25)" id="83fe41fd-ec80-4099-8d4e-a3d288048748" x1="0%" y1="0%" x2="100%" y2="0%"><stop data-v-423bf9ae="" offset="0%" style="stop-color: rgb(40, 139, 88); stop-opacity: 1;"></stop><stop data-v-423bf9ae="" offset="100%" style="stop-color: rgb(21, 34, 241); stop-opacity: 1;"></stop></linearGradient></defs><g data-v-423bf9ae="" id="af8358e2-a711-44e1-afbe-cb67b10e0cbd" transform="matrix(1.0407030123315113,0,0,1.0407030123315113,-10.290801887844438,-6.274867355789489)" stroke="none" fill="url(#83fe41fd-ec80-4099-8d4e-a3d288048748)"><path d="M61.086 59.727c-8.793 8.47-17.764 15.794-25.466 20.772-9.896 6.397-13.499 6.298-14.231 6.177-.079-.525-.125-2.521 2.252-7.208a39.398 39.398 0 01-4.713-4.993c-4.568 8.178-5.299 13.708-2.227 16.823 1.27 1.289 2.961 1.935 5.09 1.935 3.858 0 9.155-2.121 15.996-6.386 8.381-5.225 18.212-13.156 27.886-22.483l2.691 5.851c.428-5.652 2.867-12.995 5.377-18.361-5.402 2.432-12.779 4.766-18.438 5.112l5.783 2.761z"></path><path d="M71.344 17.36c-1.787.867-4.048 2.124-6.878 3.952-6.874 4.444-14.911 10.9-22.859 18.348l10.507 5.017-8.379.514c-5.756.352-13.121 2.873-17.679 4.924l-5.344 2.405 2.483-5.308c2.117-4.526 4.744-11.852 5.179-17.604l.633-8.373 4.929 10.717c8.648-8.128 17.398-15.129 24.978-19.987a39.343 39.343 0 00-9.181-1.09c-21.686 0-39.266 17.58-39.266 39.266 0 13.487 6.802 25.383 17.16 32.452 1.777-.866 4.017-2.113 6.812-3.92 6.875-4.444 14.912-10.9 22.86-18.348l-10.508-5.018 8.379-.513c5.756-.353 13.121-2.874 17.679-4.925l5.344-2.406-2.483 5.308c-2.117 4.525-4.743 11.852-5.179 17.604l-.633 8.373-4.928-10.714c-8.72 8.193-17.541 15.241-25.165 20.104a39.341 39.341 0 009.929 1.269C71.42 89.407 89 71.827 89 50.142c0-13.701-7.021-25.756-17.656-32.782z"></path><path d="M37.82 40.26c8.794-8.47 17.765-15.794 25.467-20.773 9.896-6.397 13.498-6.297 14.23-6.177.079.525.125 2.522-2.252 7.208a39.482 39.482 0 014.714 4.994c4.567-8.178 5.299-13.708 2.227-16.824-1.27-1.289-2.961-1.935-5.09-1.935-3.858 0-9.155 2.121-15.996 6.386-8.382 5.225-18.212 13.156-27.887 22.483l-2.691-5.851c-.427 5.651-2.867 12.995-5.377 18.361 5.403-2.432 12.78-4.766 18.438-5.112l-5.783-2.76z"></path></g><!----></svg>