<svg data-v-423bf9ae="" xmlns="http://www.w3.org/2000/svg" viewBox="0 0 386 90" class="iconLeft"><!----><!----><!----><g data-v-423bf9ae="" id="71f34e5f-1e4e-4465-829f-6b5646eae719" fill="#000000" transform="matrix(4.769475386636096,0,0,4.769475386636096,99.39248464924964,-1.645467952752341)"><path d="M4.76 13.72L0.49 13.72L0.49 13.09L1.68 12.75L1.68 6.08L0.49 5.75L0.49 5.12L4.76 5.12L4.76 5.75L3.57 6.08L3.57 9.03L6.73 9.03L6.73 6.08L5.53 5.75L5.53 5.12L9.81 5.12L9.81 5.75L8.62 6.08L8.62 12.75L9.81 13.09L9.81 13.72L5.54 13.72L5.54 13.09L6.73 12.75L6.73 9.86L3.57 9.86L3.57 12.75L4.76 13.09L4.76 13.72ZM14.01 13.86Q10.65 13.86 10.65 10.30L10.65 10.30Q10.65 8.37 11.55 7.53Q12.45 6.69 13.87 6.69L13.87 6.69Q15.34 6.69 16.02 7.34Q16.69 7.99 16.69 9.38L16.69 9.38Q16.69 9.98 16.63 10.30L16.63 10.30L12.68 10.30L12.68 10.64Q12.68 11.87 13.15 12.34Q13.61 12.81 14.57 12.81L14.57 12.81Q15.30 12.81 16.51 12.47L16.51 12.47L16.62 13.09Q15.60 13.86 14.01 13.86L14.01 13.86ZM12.71 9.55L14.78 9.39L14.78 9.10Q14.78 8.40 14.62 8.03Q14.45 7.66 13.94 7.66L13.94 7.66Q13.24 7.66 12.99 8.11Q12.74 8.57 12.71 9.55L12.71 9.55ZM21.32 13.72L17.25 13.72L17.25 13.02L18.34 12.74L18.34 4.86L17.25 4.70L17.25 4.03L19.61 3.49L20.23 3.49L20.23 12.74L21.32 13.02L21.32 13.72ZM21.78 16.07L21.78 15.37L22.88 15.09L22.88 8.01L21.62 7.91L21.62 7.21Q22.51 6.99 23.63 6.84Q24.74 6.69 25.75 6.69L25.75 6.69Q27.06 6.69 27.82 7.10Q28.59 7.50 28.92 8.30Q29.25 9.09 29.25 10.30L29.25 10.30Q29.25 11.87 28.41 12.80Q27.58 13.72 26.04 13.72L26.04 13.72Q25.52 13.72 24.86 13.50L24.86 13.50L25.05 12.77Q25.35 12.84 25.61 12.84L25.61 12.84Q26.31 12.84 26.66 12.53Q27.01 12.22 27.11 11.68Q27.22 11.13 27.22 10.25L27.22 10.25Q27.22 9.10 26.92 8.37Q26.63 7.63 25.75 7.63L25.75 7.63Q25.19 7.63 24.77 7.76L24.77 7.76L24.77 15.04L26.28 15.33L26.28 16.07L21.78 16.07ZM38.43 5.75L38.43 5.12L41.83 5.12L41.83 5.75L40.64 6.08L40.64 13.72L39.07 13.86L34.62 7.34L34.62 12.75L35.81 13.09L35.81 13.72L32.48 13.72L32.48 13.09L33.66 12.75L33.66 6.08L32.47 5.75L32.47 5.12L35.35 5.12L39.62 11.44L39.62 6.08L38.43 5.75ZM45.82 6.69Q47.61 6.69 48.46 7.69Q49.31 8.68 49.31 10.30L49.31 10.30Q49.31 11.87 48.45 12.87Q47.60 13.86 45.82 13.86L45.82 13.86Q44.09 13.86 43.24 12.87Q42.39 11.87 42.39 10.30L42.39 10.30Q42.39 8.68 43.23 7.69Q44.06 6.69 45.82 6.69L45.82 6.69ZM47.28 10.28Q47.28 9.00 46.96 8.32Q46.63 7.63 45.79 7.63L45.79 7.63Q45.01 7.63 44.72 8.32Q44.42 9.00 44.42 10.28L44.42 10.28Q44.42 11.54 44.74 12.22Q45.05 12.91 45.88 12.91L45.88 12.91Q46.69 12.91 46.98 12.23Q47.28 11.55 47.28 10.28L47.28 10.28ZM60.06 7.56L59.18 7.80L57.32 13.79L55.99 13.93L54.78 10.26L53.66 13.79L52.35 13.93L50.20 7.77L49.49 7.56L49.49 6.83L52.91 6.83L52.91 7.60L52.18 7.77L53.28 11.63L54.52 7.52L55.69 7.32L56.92 11.65L57.92 7.80L57.02 7.60L57.02 6.83L60.06 6.83L60.06 7.56Z"></path></g><defs data-v-423bf9ae=""><linearGradient data-v-423bf9ae="" gradientTransform="rotate(25)" id="0b33464a-9acf-41ad-aac8-e283d8c40638" x1="0%" y1="0%" x2="100%" y2="0%"><stop data-v-423bf9ae="" offset="0%" style="stop-color: rgb(40, 139, 88); stop-opacity: 1;"></stop><stop data-v-423bf9ae="" offset="100%" style="stop-color: rgb(21, 34, 241); stop-opacity: 1;"></stop></linearGradient></defs><g data-v-423bf9ae="" id="103ff21b-59b7-40c7-b488-677af2253e87" transform="matrix(1.0407030123315113,0,0,1.0407030123315113,-10.290801887844438,-6.274867355789489)" stroke="none" fill="url(#0b33464a-9acf-41ad-aac8-e283d8c40638)"><path d="M61.086 59.727c-8.793 8.47-17.764 15.794-25.466 20.772-9.896 6.397-13.499 6.298-14.231 6.177-.079-.525-.125-2.521 2.252-7.208a39.398 39.398 0 01-4.713-4.993c-4.568 8.178-5.299 13.708-2.227 16.823 1.27 1.289 2.961 1.935 5.09 1.935 3.858 0 9.155-2.121 15.996-6.386 8.381-5.225 18.212-13.156 27.886-22.483l2.691 5.851c.428-5.652 2.867-12.995 5.377-18.361-5.402 2.432-12.779 4.766-18.438 5.112l5.783 2.761z"></path><path d="M71.344 17.36c-1.787.867-4.048 2.124-6.878 3.952-6.874 4.444-14.911 10.9-22.859 18.348l10.507 5.017-8.379.514c-5.756.352-13.121 2.873-17.679 4.924l-5.344 2.405 2.483-5.308c2.117-4.526 4.744-11.852 5.179-17.604l.633-8.373 4.929 10.717c8.648-8.128 17.398-15.129 24.978-19.987a39.343 39.343 0 00-9.181-1.09c-21.686 0-39.266 17.58-39.266 39.266 0 13.487 6.802 25.383 17.16 32.452 1.777-.866 4.017-2.113 6.812-3.92 6.875-4.444 14.912-10.9 22.86-18.348l-10.508-5.018 8.379-.513c5.756-.353 13.121-2.874 17.679-4.925l5.344-2.406-2.483 5.308c-2.117 4.525-4.743 11.852-5.179 17.604l-.633 8.373-4.928-10.714c-8.72 8.193-17.541 15.241-25.165 20.104a39.341 39.341 0 009.929 1.269C71.42 89.407 89 71.827 89 50.142c0-13.701-7.021-25.756-17.656-32.782z"></path><path d="M37.82 40.26c8.794-8.47 17.765-15.794 25.467-20.773 9.896-6.397 13.498-6.297 14.23-6.177.079.525.125 2.522-2.252 7.208a39.482 39.482 0 014.714 4.994c4.567-8.178 5.299-13.708 2.227-16.824-1.27-1.289-2.961-1.935-5.09-1.935-3.858 0-9.155 2.121-15.996 6.386-8.382 5.225-18.212 13.156-27.887 22.483l-2.691-5.851c-.427 5.651-2.867 12.995-5.377 18.361 5.403-2.432 12.78-4.766 18.438-5.112l-5.783-2.76z"></path></g><!----></svg>