<svg data-v-fde0c5aa="" xmlns="http://www.w3.org/2000/svg" viewBox="0 0 300 300" class="iconLeft"><!----><defs data-v-fde0c5aa=""><!----></defs><!----><defs data-v-fde0c5aa=""><!----></defs><g data-v-fde0c5aa="" id="7b25601f-0417-43fd-bd21-6e0ba0b7800b" fill="#0146A6" transform="matrix(1.8577635115940425,0,0,1.8577635115940425,90.92493430123046,130.83716927160538)"><path d="M2.97 5.63L2.97 5.63L2.16 5.79L2.16 5.79Q2.01 5.79 1.93 5.75L1.93 5.75L1.93 5.75Q1.86 5.71 1.86 5.58L1.86 5.58L1.86 5.58Q1.86 5.27 2.49 4.75L2.49 4.75L2.49 4.75Q3.12 4.24 4.22 3.81L4.22 3.81L4.22 3.81Q5.33 3.38 6.22 3.38L6.22 3.38L6.22 3.38Q7.11 3.38 7.49 3.68L7.49 3.68L7.49 3.68Q7.87 3.99 7.87 4.75L7.87 4.75L7.87 4.75Q7.87 5.52 7.55 6.49L7.55 6.49L7.55 6.49Q7.24 7.46 6.65 8.89L6.65 8.89L7.84 8.86L7.84 8.86Q8.32 8.86 8.32 9.14L8.32 9.14L8.32 9.14Q8.32 9.34 8.09 9.45L8.09 9.45L8.09 9.45Q7.51 9.75 6.24 9.91L6.24 9.91L6.24 9.91Q5.76 11.10 5.51 11.89L5.51 11.89L5.51 11.89Q5.25 12.69 5.25 13.19L5.25 13.19L5.27 13.64L5.27 13.64Q5.27 13.85 5.04 13.97L5.04 13.97L5.04 13.97Q4.81 14.10 4.55 14.10L4.55 14.10L1.81 14.14L1.81 14.14Q1.05 14.14 0.89 13.88L0.89 13.88L0.89 13.88Q0.81 13.75 0.81 13.48L0.81 13.48L0.81 13.48Q0.81 13.21 0.93 12.70L0.93 12.70L0.93 12.70Q1.05 12.20 1.67 10.73L1.67 10.73L1.67 10.73Q2.30 9.26 2.81 7.98L2.81 7.98L2.81 7.98Q3.33 6.71 3.33 6.31L3.33 6.31L3.33 6.31Q3.33 5.90 3.24 5.76L3.24 5.76L3.24 5.76Q3.15 5.63 2.97 5.63ZM11.21 14.10L11.21 14.10L8.67 14.14L8.67 14.14Q7.92 14.14 7.75 13.88L7.75 13.88L7.75 13.88Q7.68 13.75 7.68 13.55L7.68 13.55L7.68 13.55Q7.68 12.91 8.18 11.29L8.18 11.29L8.18 11.29Q8.67 9.67 9.26 7.88L9.26 7.88L9.26 7.88Q9.84 6.08 9.94 5.48L9.94 5.48L9.94 5.48Q10.04 4.87 10.04 4.41L10.04 4.41L10.04 4.41Q10.04 3.94 10.24 3.82L10.24 3.82L10.24 3.82Q10.45 3.69 11.06 3.69L11.06 3.69L11.06 3.69Q11.66 3.69 12.52 3.63L12.52 3.63L12.52 3.63Q13.37 3.57 13.66 3.57L13.66 3.57L13.66 3.57Q13.95 3.57 14.09 3.73L14.09 3.73L14.09 3.73Q14.23 3.89 14.23 4.14L14.23 4.14L14.23 4.14Q14.23 5.34 13.41 7.57L13.41 7.57L13.41 7.57Q13.07 8.51 12.73 9.46L12.73 9.46L12.73 9.46Q11.90 11.73 11.90 13.21L11.90 13.21L11.93 13.64L11.93 13.64Q11.93 13.85 11.70 13.97L11.70 13.97L11.70 13.97Q11.46 14.10 11.21 14.10ZM25.58 12.07L25.58 12.07L25.58 12.07Q25.82 12.07 25.82 12.29L25.82 12.29L25.82 12.29Q25.82 12.51 25.49 12.70L25.49 12.70L25.49 12.70Q25.17 12.89 24.69 13.10L24.69 13.10L24.69 13.10Q24.21 13.32 23.37 13.61L23.37 13.61L23.37 13.61Q21.44 14.29 19.00 14.29L19.00 14.29L19.00 14.29Q14.38 14.29 14.38 11.44L14.38 11.44L14.38 11.44Q14.38 10.06 15.26 8.98L15.26 8.98L15.26 8.98Q16.14 7.90 17.62 7.33L17.62 7.33L17.62 7.33Q19.09 6.76 20.84 6.76L20.84 6.76L20.84 6.76Q22.58 6.76 23.39 7.30L23.39 7.30L23.39 7.30Q24.20 7.84 24.20 8.78L24.20 8.78L24.20 8.78Q24.20 9.75 23.42 10.37L23.42 10.37L23.42 10.37Q22.65 10.99 21.36 11.29L21.36 11.29L21.36 11.29Q20.07 11.59 18.40 11.71L18.40 11.71L18.40 11.71Q18.51 12.77 19.92 13.03L19.92 13.03L19.92 13.03Q20.28 13.09 20.69 13.09L20.69 13.09L20.69 13.09Q22.29 13.09 25.30 12.13L25.30 12.13L25.30 12.13Q25.48 12.07 25.58 12.07ZM18.41 10.96L18.41 10.96L18.41 10.96Q19.60 10.63 20.29 9.95L20.29 9.95L20.29 9.95Q20.98 9.28 20.98 8.32L20.98 8.32L20.98 8.32Q20.98 8.07 20.82 7.92L20.82 7.92L20.82 7.92Q20.65 7.77 20.32 7.77L20.32 7.77L20.32 7.77Q19.99 7.77 19.63 8.05L19.63 8.05L19.63 8.05Q19.27 8.34 19.02 8.80L19.02 8.80L19.02 8.80Q18.50 9.77 18.41 10.96ZM28.13 3.94L28.13 3.94L31.48 3.87L31.48 3.87Q31.66 3.87 31.75 3.98L31.75 3.98L31.75 3.98Q31.83 4.08 31.83 4.21L31.83 4.21L31.83 4.21Q31.83 4.93 30.53 8.35L30.53 8.35L30.53 8.35Q29.22 11.78 29.22 12.39L29.22 12.39L29.22 12.39Q29.22 12.64 29.32 12.77L29.32 12.77L29.32 12.77Q29.42 12.89 29.68 12.89L29.68 12.89L29.68 12.89Q30.50 12.89 32.20 12.14L32.20 12.14L32.20 12.14Q32.38 12.07 32.53 12.07L32.53 12.07L32.53 12.07Q32.81 12.07 32.81 12.28L32.81 12.28L32.81 12.28Q32.81 12.47 32.53 12.67L32.53 12.67L32.53 12.67Q32.25 12.87 31.76 13.10L31.76 13.10L31.76 13.10Q31.27 13.34 30.56 13.62L30.56 13.62L30.56 13.62Q29.86 13.90 28.97 14.10L28.97 14.10L28.97 14.10Q28.08 14.29 27.10 14.29L27.10 14.29L27.10 14.29Q26.12 14.29 25.53 14.02L25.53 14.02L25.53 14.02Q24.94 13.76 24.94 13.06L24.94 13.06L24.94 13.06Q24.94 12.56 26.21 9.19L26.21 9.19L26.21 9.19Q26.68 7.94 27.08 6.58L27.08 6.58L27.08 6.58Q27.47 5.22 27.47 4.55L27.47 4.55L27.47 4.29L27.47 4.29Q27.47 3.94 28.13 3.94ZM33.96 6.98L33.96 6.98L37.06 6.90L37.06 6.90Q37.24 6.90 37.33 7.01L37.33 7.01L37.33 7.01Q37.42 7.12 37.42 7.25L37.42 7.25L37.42 7.25Q37.42 7.38 37.37 7.71L37.37 7.71L37.37 7.71Q37.32 8.03 37.32 8.18L37.32 8.18L37.32 8.18Q38.58 6.76 40.68 6.76L40.68 6.76L40.68 6.76Q41.96 6.76 42.69 7.41L42.69 7.41L42.69 7.41Q43.43 8.07 43.43 9.26L43.43 9.26L43.43 9.26Q43.43 11.59 41.60 13.06L41.60 13.06L41.60 13.06Q43.72 12.91 44.86 12.28L44.86 12.28L44.86 12.28Q45.23 12.07 45.41 12.07L45.41 12.07L45.41 12.07Q45.64 12.07 45.64 12.32L45.64 12.32L45.64 12.32Q45.64 12.50 45.39 12.68L45.39 12.68L45.39 12.68Q44.23 13.49 42.40 13.88L42.40 13.88L42.40 13.88Q40.57 14.27 38.47 14.27L38.47 14.27L38.47 14.27Q38.21 14.29 38.08 14.29L38.08 14.29L38.08 14.29Q37.35 14.29 36.63 14.07L36.63 14.07L36.63 14.07Q35.90 13.85 35.42 13.45L35.42 13.45L35.42 13.45Q34.95 14.90 34.95 16.78L34.95 16.78L34.96 16.98L34.96 16.98Q34.96 17.32 34.30 17.32L34.30 17.32L31.12 17.40L31.12 17.40Q30.95 17.40 30.86 17.31L30.86 17.31L30.86 17.31Q30.76 17.21 30.76 17.08L30.76 17.08L30.76 17.08Q30.76 15.91 32.04 12.55L32.04 12.55L32.04 12.55Q33.32 9.18 33.32 8.04L33.32 8.04L33.29 7.47L33.29 7.47Q33.29 7.22 33.42 7.10L33.42 7.10L33.42 7.10Q33.54 6.98 33.96 6.98ZM38.66 8.50L38.66 8.50L38.66 8.50Q37.38 8.50 36.52 10.47L36.52 10.47L36.52 10.47Q36.12 11.37 36.12 11.93L36.12 11.93L36.12 11.93Q36.12 12.49 36.31 12.70L36.31 12.70L36.31 12.70Q36.50 12.91 37.05 12.91L37.05 12.91L37.05 12.91Q37.60 12.91 38.24 12.40L38.24 12.40L38.24 12.40Q38.88 11.89 39.27 11.12L39.27 11.12L39.27 11.12Q39.66 10.35 39.66 9.73L39.66 9.73L39.66 9.73Q39.66 9.11 39.38 8.80L39.38 8.80L39.38 8.80Q39.11 8.50 38.66 8.50ZM47.35 5.63L47.35 5.63L46.55 5.79L46.55 5.79Q46.40 5.79 46.32 5.75L46.32 5.75L46.32 5.75Q46.25 5.71 46.25 5.58L46.25 5.58L46.25 5.58Q46.25 5.26 46.88 4.75L46.88 4.75L46.88 4.75Q47.52 4.24 48.62 3.81L48.62 3.81L48.62 3.81Q49.72 3.38 50.61 3.38L50.61 3.38L50.61 3.38Q51.50 3.38 51.87 3.68L51.87 3.68L51.87 3.68Q52.25 3.99 52.25 4.88L52.25 4.88L52.23 5.19L52.23 5.19Q53.59 4.14 54.67 3.68L54.67 3.68L54.67 3.68Q55.75 3.23 56.79 3.23L56.79 3.23L56.79 3.23Q57.83 3.23 58.39 3.67L58.39 3.67L58.39 3.67Q58.95 4.10 58.95 4.92L58.95 4.92L58.95 4.92Q58.95 5.76 58.15 7.62L58.15 7.62L58.15 7.62Q57.83 8.38 57.50 9.13L57.50 9.13L57.50 9.13Q56.70 10.96 56.70 11.52L56.70 11.52L56.70 11.52Q56.70 12.50 57.68 12.67L57.68 12.67L57.68 12.67Q58.21 12.76 58.29 12.87L58.29 12.87L58.29 12.87Q58.37 12.97 58.37 13.08L58.37 13.08L58.37 13.08Q58.37 13.56 57.32 13.92L57.32 13.92L57.32 13.92Q56.26 14.29 54.95 14.29L54.95 14.29L54.95 14.29Q52.38 14.29 52.38 12.76L52.38 12.76L52.38 12.76Q52.38 11.70 53.12 9.95L53.12 9.95L53.12 9.95Q53.43 9.22 53.74 8.52L53.74 8.52L53.74 8.52Q54.48 6.85 54.48 6.18L54.48 6.18L54.48 6.18Q54.48 5.52 53.44 5.52L53.44 5.52L53.44 5.52Q52.84 5.52 52.09 5.94L52.09 5.94L52.09 5.94Q51.75 7.26 50.65 9.86L50.65 9.86L50.65 9.86Q49.64 12.23 49.64 13.19L49.64 13.19L49.64 13.19Q49.64 13.19 49.66 13.64L49.66 13.64L49.66 13.64Q49.66 13.85 49.42 13.97L49.42 13.97L49.42 13.97Q49.19 14.10 48.94 14.10L48.94 14.10L46.20 14.14L46.20 14.14Q45.44 14.14 45.27 13.88L45.27 13.88L45.27 13.88Q45.20 13.75 45.20 13.48L45.20 13.48L45.20 13.48Q45.20 13.21 45.32 12.70L45.32 12.70L45.32 12.70Q45.43 12.20 46.06 10.73L46.06 10.73L46.06 10.73Q46.68 9.26 47.20 7.98L47.20 7.98L47.20 7.98Q47.71 6.71 47.71 6.31L47.71 6.31L47.71 6.31Q47.71 5.90 47.63 5.76L47.63 5.76L47.63 5.76Q47.54 5.63 47.35 5.63ZM61.20 13.56L61.20 13.56L61.20 13.56Q59.91 12.78 59.91 11.21L59.91 11.21L59.91 11.21Q59.91 10.39 60.25 9.67L60.25 9.67L60.25 9.67Q60.59 8.95 61.18 8.42L61.18 8.42L61.18 8.42Q61.77 7.90 62.56 7.52L62.56 7.52L62.56 7.52Q64.13 6.76 66.16 6.76L66.16 6.76L66.16 6.76Q70.15 6.76 70.47 9.29L70.47 9.29L70.47 9.29Q70.95 9.45 71.46 9.45L71.46 9.45L71.46 9.45Q71.97 9.45 72.31 9.37L72.31 9.37L72.31 9.37Q72.65 9.30 72.96 9.15L72.96 9.15L72.96 9.15Q73.26 9.00 73.39 9.00L73.39 9.00L73.39 9.00Q73.65 9.00 73.65 9.25L73.65 9.25L73.65 9.25Q73.65 9.50 73.25 9.78L73.25 9.78L73.25 9.78Q72.49 10.29 71.24 10.29L71.24 10.29L71.24 10.29Q70.77 10.29 70.47 10.25L70.47 10.25L70.47 10.25Q70.25 11.97 68.69 13.11L68.69 13.11L68.69 13.11Q67.95 13.66 66.87 13.97L66.87 13.97L66.87 13.97Q65.78 14.29 64.62 14.29L64.62 14.29L64.62 14.29Q63.46 14.29 62.64 14.11L62.64 14.11L62.64 14.11Q61.81 13.92 61.20 13.56ZM63.68 11.81L63.68 11.81L63.68 11.81Q63.68 13.08 64.60 13.08L64.60 13.08L64.60 13.08Q65.19 13.08 65.70 12.43L65.70 12.43L65.70 12.43Q66.21 11.79 66.49 10.84L66.49 10.84L66.49 10.84Q66.77 9.89 66.77 8.90L66.77 8.90L66.77 8.90Q66.77 7.92 66.08 7.92L66.08 7.92L66.08 7.92Q65.48 7.92 64.92 8.48L64.92 8.48L64.92 8.48Q64.35 9.05 64.02 9.96L64.02 9.96L64.02 9.96Q63.68 10.86 63.68 11.81ZM73.56 6.98L73.56 6.98L77.18 6.90L77.18 6.90Q77.44 6.90 77.44 7.17L77.44 7.17L77.44 7.17Q77.44 7.33 77.28 7.53L77.28 7.53L77.28 7.53Q76.69 8.27 76.29 9.21L76.29 9.21L76.29 9.21Q75.89 10.14 75.89 11.12L75.89 11.12L75.89 11.12Q75.89 12.13 76.21 12.39L76.21 12.39L76.21 12.39Q76.35 12.50 76.56 12.50L76.56 12.50L76.56 12.50Q77.01 12.50 77.40 12.15L77.40 12.15L77.40 12.15Q77.79 11.81 78.07 11.27L78.07 11.27L78.07 11.27Q78.35 10.74 78.57 10.04L78.57 10.04L78.57 10.04Q78.95 8.84 79.12 7.44L79.12 7.44L79.12 7.44Q79.13 7.27 79.24 7.13L79.24 7.13L79.24 7.13Q79.34 6.98 79.58 6.98L79.58 6.98L83.19 6.90L83.19 6.90Q83.46 6.90 83.46 7.13L83.46 7.13L83.46 7.13Q83.46 7.31 83.30 7.53L83.30 7.53L83.30 7.53Q81.91 9.46 81.91 11.26L81.91 11.26L81.91 11.26Q81.91 12.43 82.60 12.43L82.60 12.43L82.60 12.43Q83.13 12.43 83.58 11.99L83.58 11.99L83.58 11.99Q84.03 11.55 84.32 10.83L84.32 10.83L84.32 10.83Q84.95 9.30 84.95 7.44L84.95 7.44L84.95 7.44Q84.95 7.04 85.41 6.98L85.41 6.98L85.41 6.98Q85.56 6.96 86.66 6.93L86.66 6.93L86.66 6.93Q87.77 6.90 88.08 6.90L88.08 6.90L88.08 6.90Q88.40 6.90 88.40 7.19L88.40 7.19L88.40 7.19Q88.40 8.22 87.83 9.26L87.83 9.26L87.83 9.26Q88.14 9.32 88.46 9.32L88.46 9.32L88.46 9.32Q89.54 9.32 90.42 8.83L90.42 8.83L90.42 8.83Q90.61 8.72 90.74 8.72L90.74 8.72L90.74 8.72Q91.01 8.72 91.01 8.97L91.01 8.97L91.01 8.97Q91.01 9.21 90.72 9.44L90.72 9.44L90.72 9.44Q89.74 10.19 88.07 10.19L88.07 10.19L88.07 10.19Q87.62 10.19 87.27 10.12L87.27 10.12L86.97 10.54L86.97 10.54Q86.17 11.60 85.02 12.51L85.02 12.51L85.02 12.51Q83.88 13.41 82.69 13.94L82.69 13.94L82.69 13.94Q81.50 14.46 80.58 14.46L80.58 14.46L80.58 14.46Q79.99 14.46 79.42 13.94L79.42 13.94L79.42 13.94Q78.85 13.42 78.50 12.62L78.50 12.62L78.50 12.62Q77.45 13.48 76.38 14.00L76.38 14.00L76.38 14.00Q75.30 14.53 74.50 14.53L74.50 14.53L74.50 14.53Q73.37 14.53 72.65 13.55L72.65 13.55L72.65 13.55Q71.92 12.57 71.92 10.99L71.92 10.99L71.92 10.99Q71.92 10.32 72.20 9.18L72.20 9.18L72.20 9.18Q72.49 8.04 72.87 7.41L72.87 7.41L72.87 7.41Q73.03 7.16 73.17 7.07L73.17 7.07L73.17 7.07Q73.30 6.98 73.56 6.98Z"></path></g><defs data-v-fde0c5aa=""><!----></defs><g data-v-fde0c5aa="" id="a910acdd-829c-4a56-891a-395cbac9f15c" stroke="none" fill="#0146A6" transform="matrix(0.000009856730859621694,0,0,0.000009856730859621694,35.07303422597122,125.35758637545963)"><path d="M2838987 2928754c33190-12284 73585-30828 117878-58231-18308-18189-37679-34489-56222-43702-42994-21733-62010-18898-89295-8268-11220 4252-24804 18072-31064 30001-1181 2126-1889 4725-2480 7323 18662 19371 34844 38978 47836 55396 5079 6496 9449 12402 13347 17481zm-587381-1767103c-288670-12048-577459-5552-866247 64844-55514 184494-111146 368988-166777 553482 0 0 283709 174337 353042 216976 69333 42521 268237 64136 465487 45828 197251-18308 317845 40395 317845 40395l229023 82562s148705 49135 193471-47955c44883-97208-40159-171147-100161-191462-60120-20198-223117-80436-223117-80436-164887-75711-502575-46773-215086-310640 167958-42285 345129-40277 528678-8032 76893 93429 162053 189928 257253 290325 0 0 95081 85514 161343 100751 47010 10748 64727 3543 88822-13229 9803-6851 19607-23623 22914-36615 3307-12993-4725-31301-4725-31301l-347255-448124c-13819-17717-31772-30001-51497-36970l118-118-1536-472-1653-591c-131934-53623-494189-203746-639942-189218zm442219 1106019l2008 4488c57285 133823 213668 196306 347491 138902 133823-57285 196424-213668 139020-347491l-1889-4488c-57286-133824-213787-196424-347610-139021-12992 5670-25394 12166-37088 19607 7323 8032 14174 16773 20316 25985 27875 42521 40867 95437 20788 155202-2480 7087-5197 13938-8150 20552-31418 68034-91774 89058-146697 92483 3189 11339 7086 22678 11811 33781zM2502953 497024c1054167 0 1918170 814277 1997189 1848247l-547458 157682c-30592 8740-48427 41104-39569 71695l180360 626240c8859 30592 41104 48545 71696 39687l223707-64491c-277331 773529-1016961 1327011-1885925 1327011-1106255 0-2003095-896840-2003095-2003095 0-281229 58112-548757 162643-791600l416116 131697c30355 9568 63191-7441 72758-37796l196660-621280c9567-30473-7442-63191-37797-72758l-187919-59529c359302-341822 845460-551710 1380634-551710zm250756 2455471c3779-591 9685-1654 17126-3308-26457-33544-67325-79608-104176-98152-42994-21733-62010-18899-89412-8386-11103 4370-24686 18189-30946 30001-6378 11811-2835 31536-2835 31536l5551 12402c14528 15827 27639 31536 38151 44883 6142 7796 11339 14764 15709 20670l142446-28702 3189-236c118-118 1771-236 5197-708zm-217920 519819c12874 19135 31418 34607 54568 43466l174927 67207 247331-154966-252764-80199c-24096 4725-54923 10748-85515 16890-38859 7796-77246 15591-99334 20552-21260 4725-44056 6378-68033 5079-2835-236-5670-591-8504-827l21851 49254c3071 10394 7441 20433 13228 29646l1772 4134 473-236zm-5552-475527c-26575-33190-66262-77364-102050-95436-42994-21733-62010-18780-89413-8386-11102 4370-24685 18190-30945 30119-6379 11693-2835 31419-2835 31419l54923 123429c3307-3308 6614-6615 9921-9568 29883-26103 61656-41221 86460-51143 24686-9803 42757-14056 45119-14646l945-118 27875-5670zm830932 734787l675966-547812-167722-553364s-332727 12047-413989 14882c-81381 3071-258906 95200-413045 219692-154138 124610-287017 142446-287017 142446l-236464 58112s-150949 41340-134413 147170c16417 105593 128153 120122 189454 103822 61183-16536 230323-56577 230323-56577l308041-54923s49844 84097 54568 115634c2953 19725-11575 78782-11575 78782-145280 99806-290442 199612-435722 299537l-374894-99216s-126618-18544-190163 5433c-45120 17009-55868 32954-66617 60238-4370 11103-3307 30474 1063 43112 4489 12638 21379 23387 21379 23387l537300 180832c21261 7087 43112 7323 63310 2244v236l1653-472 1654-472c159454-32482 455447-91303 600019-154139h236c16772-7323 32481-16890 46655-28584z"></path></g><!----></svg>