<svg data-v-423bf9ae="" xmlns="http://www.w3.org/2000/svg" viewBox="0 0 201 91" class="iconLeft"><!----><!----><!----><g data-v-423bf9ae="" id="081fc451-8b74-4045-a129-e54d96f503c3" fill="#00A7AC" transform="matrix(5.25854476664778,0,0,5.25854476664778,72.4469501669167,-36.84925007060619)"><path d="M6.40 15.50Q7.03 15.50 7.39 14.98Q7.76 14.46 7.76 13.55L7.76 13.55Q7.76 12.57 7.29 11.95Q6.82 11.33 5.91 11.33L5.91 11.33Q5.36 11.33 4.89 11.65L4.89 11.65L4.89 19.39L7.48 19.88L6.92 21L0.56 21L0.56 20.01L1.88 18.97L1.88 11.59L0.28 11.12L0.84 10.00L3.58 10.00Q4.76 10.00 5.91 9.91L5.91 9.91Q6.75 9.86 7.14 9.86L7.14 9.86Q8.29 9.86 9.18 10.29Q10.07 10.72 10.56 11.48Q11.05 12.24 11.05 13.16L11.05 13.16Q11.05 14.17 10.24 15.07Q9.44 15.97 8.21 16.48Q6.99 17.00 5.85 16.94L5.85 16.94L5.26 16.60L5.82 15.48L6.40 15.48L6.40 15.50ZM24.39 10.99L22.75 12.21L19.39 20.55L16.39 21.27L12.50 11.77L11.05 11.12L11.61 10.00L17.40 10.00L17.40 10.99L15.74 11.86L18.51 18.70L21.11 12.19L19.15 11.12L19.71 10.00L24.39 10.00L24.39 10.99Z"></path></g><!----><g data-v-423bf9ae="" id="a0d0eaed-6a38-4cbd-b089-e4e84b381484" transform="matrix(1.0000182261080097,0,0,1.0000182261080097,-23.96011589623187,-8.000152497838911)" stroke="none" fill="#00A7AC"><path d="M78.201 87.271l-8.846-24.826a2.87 2.87 0 00-3.531-1.784l-6.495 1.957a2.858 2.858 0 00-1.892 1.85l-2.565-7.764a2.568 2.568 0 001.735-.667c1.075-.96 1.042-2.515.198-3.683-.616-.852-1.25-2.171-2.16-3.61-3.706-5.858-8.607-22.055-8.607-22.055a1.355 1.355 0 00-.168-.246c-.658-1.404-2.193-2.138-4.042-2.424-2.662-.413-5.012.22-5.586 3.13l-4.675 28.365c-.48 2.433-.747 3.667-.782 4.956-.129 4.67-3.379 34.923-3.379 34.923-.128 1.005.816 2.775 2.237 2.957 1.42.182 2.779-1.295 2.908-2.3l10.223-37.603c.001-.02-.014-.031-.017-.049a8.42 8.42 0 00.221-1.198l1.58-14.228c2.175 4.065 4.644 8.332 6.573 10.717.145.179.418.51.708.859l-.816.284.772 2.217.152-.053L63.551 92.11a3.39 3.39 0 105.315 2.789c0-.561-.149-1.083-.391-1.549.053-.013.106-.02.159-.035l7.698-2.335a2.87 2.87 0 001.869-3.709z"></path><circle cx="42.221" cy="15.511" r="7.144"></circle><path d="M49.063 94.18l-5.627-34.193-4.605 16.933 5.241 18.671c.275.974 1.838 2.234 3.215 1.844 1.38-.39 2.051-2.281 1.776-3.255zM32.773 40.885l.082-.556c.638-4.34 1.113-7.443 1.432-9.373-1.913 3.663-5.663 10.882-8.988 17.531-.265.531-1.313 2.863-.613 4.038.288.484.82.769 1.41.93 1.818.497 4.345-4.079 4.843-5.026.367-.698.722-1.364 1.068-2.009l.49-2.977c.093-1.027.186-1.963.276-2.558z"></path></g><!----></svg>
